<svg xmlns:dc="http://purl.org/dc/elements/1.1/" xmlns:cc="http://creativecommons.org/ns#" xmlns:rdf="http://www.w3.org/1999/02/22-rdf-syntax-ns#" xmlns:svg="http://www.w3.org/2000/svg" xmlns="http://www.w3.org/2000/svg" xmlns:xlink="http://www.w3.org/1999/xlink" id="svg614425" viewBox="0 0 1024 768" height="768px" width="1024px" version="1.1">
  <metadata id="metadata614431">
    <rdf:rdf>
      <cc:work rdf:about="">
        <dc:format>image/svg+xml</dc:format>
        <dc:type rdf:resource="http://purl.org/dc/dcmitype/StillImage"></dc:type>
      </cc:work>
    </rdf:rdf>
  </metadata>
  <defs id="defs614429"></defs>
  <linearGradient spreadMethod="pad" y2="30%" x2="-10%" y1="120%" x1="30%" id="3d_gradient2-logo-a4e223e9-4222-41c4-af94-93f2fddd93d9">
    <stop id="stop614406" stop-opacity="1" stop-color="#ffffff" offset="0%"></stop>
    <stop id="stop614408" stop-opacity="1" stop-color="#000000" offset="100%"></stop>
  </linearGradient>
  <linearGradient gradientTransform="rotate(-30)" spreadMethod="pad" y2="30%" x2="-10%" y1="120%" x1="30%" id="3d_gradient3-logo-a4e223e9-4222-41c4-af94-93f2fddd93d9">
    <stop id="stop614411" stop-opacity="1" stop-color="#ffffff" offset="0%"></stop>
    <stop id="stop614413" stop-opacity="1" stop-color="#cccccc" offset="50%"></stop>
    <stop id="stop614415" stop-opacity="1" stop-color="#000000" offset="100%"></stop>
  </linearGradient>
  <g id="logo-group">
    <image xlink:href="" id="container" x="272" y="144" width="480" height="480" transform="translate(0 0)" style="display: none;"></image>
    <g id="logo-center" transform="translate(70.93496324999995 0)">
      <image xlink:href="" id="icon_container" x="0" y="0" style="display: none;"></image>
      <g id="slogan" style="font-style:normal;font-weight:500;font-size:32px;line-height:1;font-family:Roboto;font-variant-ligatures:none;text-align:center;text-anchor:middle" transform="translate(0 0)"></g>
      <g id="title" style="font-style:normal;font-weight:normal;font-size:72px;line-height:1;font-family:'Brandmark Stencil 1';font-variant-ligatures:normal;text-align:center;text-anchor:middle" transform="translate(0 0)">
        <path id="path614434" style="font-style:normal;font-weight:normal;font-size:72px;line-height:1;font-family:'Brandmark Stencil 1';font-variant-ligatures:normal;text-align:center;text-anchor:middle" d="m 25.739,-49.608 h -35.928 c -0.648,0 -1.224,0.504 -1.224,1.224 0,0.648 0.576,1.224 1.224,1.224 h 35.928 c 0.648,0 1.152,-0.576 1.152,-1.224 0,-0.72 -0.504,-1.224 -1.152,-1.224 z M 6.515,-1.152 C 6.515,-0.504 7.091,0 7.739,0 8.459,0 8.963,-0.504 8.963,-1.152 v -41.04 c 0,-0.648 -0.504,-1.224 -1.224,-1.224 -0.648,0 -1.224,0.576 -1.224,1.224 z" stroke-width="0" stroke-linejoin="miter" stroke-miterlimit="2" fill="#420077" stroke="#420077" transform="translate(0 302.32000000000005) translate(50 63.482000000000006) scale(0.75) translate(11.413 49.608)"></path>
        <path id="path614436" style="font-style:normal;font-weight:normal;font-size:72px;line-height:1;font-family:'Brandmark Stencil 1';font-variant-ligatures:normal;text-align:center;text-anchor:middle" d="m 42.5015,-49.608 c -0.648,0 -1.224,0.504 -1.224,1.224 v 47.232 c 0,0.648 0.576,1.152 1.224,1.152 0.648,0 1.224,-0.504 1.224,-1.152 v -47.232 c 0,-0.72 -0.576,-1.224 -1.224,-1.224 z m 4.968,26.856 c 0,0.648 0.576,1.152 1.224,1.152 h 6.264 l 14.904,21.096 c 0.216,0.36 0.648,0.504 1.008,0.504 0.216,0 0.504,-0.072 0.72,-0.216 0.504,-0.36 0.648,-1.152 0.288,-1.656 L 57.9815,-21.6 h 0.72 c 7.704,0 14.04,-6.264 14.04,-13.968 0,-7.776 -6.336,-14.04 -14.04,-14.04 h -10.008 c -0.648,0 -1.224,0.504 -1.224,1.224 0,0.648 0.576,1.224 1.224,1.224 h 10.008 c 6.408,-0.072 11.592,5.184 11.592,11.592 0,6.336 -5.184,11.592 -11.592,11.592 h -10.008 c -0.648,0 -1.224,0.504 -1.224,1.224 z" stroke-width="0" stroke-linejoin="miter" stroke-miterlimit="2" fill="#4e0077" stroke="#4e0077" transform="translate(0 302.32000000000005) translate(89.517875 63.482000000000006) scale(0.75) translate(-41.2775 49.608)"></path>
        <path id="path614438" style="font-style:normal;font-weight:normal;font-size:72px;line-height:1;font-family:'Brandmark Stencil 1';font-variant-ligatures:normal;text-align:center;text-anchor:middle" d="m 155.105,-40.608 c 0.504,0.432 1.224,0.432 1.728,0 0.432,-0.504 0.432,-1.296 0,-1.728 -4.68,-4.68 -10.944,-7.272 -17.568,-7.272 H 93.689 c -0.648,0 -1.224,0.504 -1.224,1.224 v 47.232 c 0,0.648 0.576,1.152 1.224,1.152 0.648,0 1.224,-0.504 1.224,-1.152 v -46.08 h 44.352 c 5.976,0 11.592,2.376 15.84,6.624 z m -40.68,15.84 c 0,13.68 11.16,24.768 24.84,24.768 6.624,0 12.888,-2.592 17.568,-7.272 0.432,-0.432 0.432,-1.224 0,-1.656 -0.504,-0.504 -1.224,-0.504 -1.728,0 -4.248,4.176 -9.864,6.552 -15.84,6.552 -12.312,0 -22.392,-10.08 -22.392,-22.392 0,-5.112 1.656,-9.936 4.824,-13.896 0.432,-0.504 0.288,-1.296 -0.216,-1.728 -0.504,-0.36 -1.296,-0.288 -1.728,0.216 -3.456,4.392 -5.328,9.72 -5.328,15.408 z" stroke-width="0" stroke-linejoin="miter" stroke-miterlimit="2" fill="#5b0077" stroke="#5b0077" transform="translate(0 302.32000000000005) translate(127.9085 63.482000000000006) scale(0.75) translate(-92.465 49.608)"></path>
        <path id="path614440" style="font-style:normal;font-weight:normal;font-size:72px;line-height:1;font-family:'Brandmark Stencil 1';font-variant-ligatures:normal;text-align:center;text-anchor:middle" d="m 196.334,-49.608 c -13.68,0 -24.84,11.16 -24.84,24.84 0,13.68 11.16,24.768 24.84,24.768 13.68,0 24.84,-11.088 24.84,-24.768 0,-13.752 -11.16,-24.84 -24.84,-24.84 z m -22.392,24.84 c 0,-12.384 10.008,-22.392 22.392,-22.392 12.312,0 22.392,10.008 22.392,22.392 0,12.312 -10.08,22.392 -22.392,22.392 -12.384,0 -22.392,-10.08 -22.392,-22.392 z" stroke-width="0" stroke-linejoin="miter" stroke-miterlimit="2" fill="#670077" stroke="#670077" transform="translate(0 302.32000000000005) translate(187.18025000000003 63.482000000000006) scale(0.75) translate(-171.494 49.608)"></path>
        <path id="path614442" style="font-style:normal;font-weight:normal;font-size:72px;line-height:1;font-family:'Brandmark Stencil 1';font-variant-ligatures:normal;text-align:center;text-anchor:middle" d="m 241.34525,-49.608 c -0.648,0 -1.224,0.504 -1.224,1.224 v 47.232 c 0,0.648 0.576,1.152 1.224,1.152 0.648,0 1.224,-0.504 1.224,-1.152 v -47.232 c 0,-0.72 -0.576,-1.224 -1.224,-1.224 z m 4.968,48.456 c 0,0.648 0.576,1.152 1.224,1.152 h 18.288 c 0.648,0 1.224,-0.504 1.224,-1.152 0,-0.72 -0.576,-1.224 -1.224,-1.224 h -18.288 c -0.648,0 -1.224,0.504 -1.224,1.224 z" stroke-width="0" stroke-linejoin="miter" stroke-miterlimit="2" fill="#730077" stroke="#730077" transform="translate(0 302.32000000000005) translate(238.6506875 63.482000000000006) scale(0.75) translate(-240.12125 49.608)"></path>
        <path id="path614444" style="font-style:normal;font-weight:normal;font-size:72px;line-height:1;font-family:'Brandmark Stencil 1';font-variant-ligatures:normal;text-align:center;text-anchor:middle" d="m 359.4545,-26.064 c 3.96,-2.16 6.624,-6.336 6.624,-11.16 0,-6.984 -5.688,-12.672 -12.672,-12.672 h -17.424 c -0.648,0 -1.224,0.504 -1.224,1.224 0,0.648 0.576,1.224 1.224,1.224 h 17.424 c 5.616,0 10.224,4.536 10.224,10.224 0,5.688 -4.608,10.224 -10.224,10.224 h -16.2 v -15.192 c 0,-0.648 -0.576,-1.224 -1.224,-1.224 -0.648,0 -1.224,0.576 -1.224,1.224 v 34.488 c 0,0.648 0.576,1.224 1.224,1.224 0.648,0 1.224,-0.576 1.224,-1.224 v -16.848 h 16.2 1.008 0.288 c 6.12,0 11.088,4.968 11.088,11.088 0,6.12 -4.968,11.016 -11.088,11.016 h -36.864 l -19.944,-47.52 c -0.144,-0.432 -0.648,-0.72 -1.08,-0.72 -0.504,0 -0.936,0.288 -1.152,0.72 l -20.304,48.312 c -0.216,0.648 0.072,1.296 0.648,1.584 0.216,0.072 0.36,0.072 0.504,0.072 0.504,0 0.936,-0.288 1.152,-0.72 l 19.152,-45.648 19.08,45.648 0.144,0.216 c 0,0.072 0.072,0.072 0.072,0.144 h 0.072 c 0.072,0.072 0.072,0.144 0.144,0.144 h 0.072 c 0,0.072 0.072,0.072 0.144,0.144 h 0.072 C 316.7585,0 316.9025,0 317.0465,0 h 37.656 c 7.488,0 13.536,-6.048 13.536,-13.464 0,-5.76 -3.672,-10.728 -8.784,-12.6 z m -72,11.376 c 0,0.648 0.576,1.224 1.224,1.224 h 16.2 c 0.648,0 1.224,-0.504 1.224,-1.224 0,-0.648 -0.576,-1.224 -1.224,-1.224 h -16.2 c -0.648,0 -1.224,0.576 -1.224,1.224 z" stroke-width="0" stroke-linejoin="miter" stroke-miterlimit="2" fill="#7f0077" stroke="#7f0077" transform="translate(0 302.32000000000005) translate(265.02483500000005 62.672) scale(0.75) translate(-275.28678 50.688)"></path>
        <path id="path614446" style="font-style:normal;font-weight:normal;font-size:72px;line-height:1;font-family:'Brandmark Stencil 1';font-variant-ligatures:normal;text-align:center;text-anchor:middle" d="m 415.39737,-47.16 h 79.488 c 0.72,0 1.224,-0.576 1.224,-1.224 0,-0.72 -0.504,-1.224 -1.224,-1.224 h -79.488 c -0.648,0 -1.22399,0.504 -1.22399,1.224 0,0.648 0.57599,1.224 1.22399,1.224 z m 16.70401,46.008 c 0,0.648 0.57599,1.152 1.22399,1.152 0.72,0 1.224,-0.504 1.224,-1.152 v -40.824 c 0,-0.648 -0.504,-1.152 -1.224,-1.152 -0.648,0 -1.22399,0.504 -1.22399,1.152 z m 33.91199,0 c 0,0.648 0.57601,1.152 1.224,1.152 h 27.648 c 0.72,0 1.224,-0.504 1.224,-1.152 0,-0.72 -0.504,-1.224 -1.224,-1.224 h -27.648 c -0.64799,0 -1.224,0.504 -1.224,1.224 z m 0,-24.408 c 0,0.648 0.57601,1.224 1.224,1.224 h 27.144 c 0.72001,0 1.224,-0.576 1.224,-1.224 0,-0.648 -0.50399,-1.224 -1.224,-1.224 h -27.144 c -0.64799,0 -1.224,0.576 -1.224,1.224 z" stroke-width="0" stroke-linejoin="miter" stroke-miterlimit="2" fill="#8c0077" stroke="#8c0077" transform="translate(0 302.32000000000005) translate(369.18978500000003 63.482000000000006) scale(0.75) translate(-414.17338 49.608)"></path>
        <path id="path614448" style="font-style:normal;font-weight:normal;font-size:72px;line-height:1;font-family:'Brandmark Stencil 1';font-variant-ligatures:normal;text-align:center;text-anchor:middle" d="m 571.96025,-49.608 h -36.72 c -13.68,0 -24.84,11.16 -24.84,24.84 0,13.68 11.16,24.768 24.84,24.768 6.624,0 12.816,-2.52 17.568,-7.272 0.432,-0.432 0.432,-1.224 0,-1.656 -0.504,-0.504 -1.296,-0.504 -1.728,0 -4.248,4.176 -9.864,6.552 -15.84,6.552 -12.384,0 -22.392,-10.08 -22.392,-22.392 0,-12.384 10.008,-22.392 22.392,-22.392 h 35.496 v 46.008 c 0,0.648 0.504,1.152 1.224,1.152 0.648,0 1.224,-0.504 1.224,-1.152 v -47.232 c 0,-0.72 -0.576,-1.224 -1.224,-1.224 z m 2.808,23.976 c 0,0.72 0.576,1.224 1.224,1.224 h 28.224 c 0.648,0 1.152,-0.504 1.152,-1.224 0,-0.648 -0.504,-1.224 -1.152,-1.224 h -28.224 c -0.648,0 -1.224,0.576 -1.224,1.224 z m 32.256,24.48 c 0,0.648 0.504,1.152 1.224,1.152 0.648,0 1.224,-0.504 1.224,-1.152 v -47.232 c 0,-0.72 -0.576,-1.224 -1.224,-1.224 -0.72,0 -1.224,0.504 -1.224,1.224 z" stroke-width="0" stroke-linejoin="miter" stroke-miterlimit="2" fill="#980077" stroke="#980077" transform="translate(0 302.32000000000005) translate(441.35993750000006 63.482000000000006) scale(0.75) translate(-510.40025 49.608)"></path>
        <path id="path614450" style="font-style:normal;font-weight:normal;font-size:72px;line-height:1;font-family:'Brandmark Stencil 1';font-variant-ligatures:normal;text-align:center;text-anchor:middle" d="m 668.33113,-49.608 c -0.648,0 -1.15201,0.504 -1.15201,1.224 v 43.56 l -32.976,-44.28 c -0.288,-0.432 -0.864,-0.648 -1.296,-0.432 -0.50399,0.144 -0.86399,0.576 -0.86399,1.152 v 47.232 c 0,0.648 0.576,1.152 1.22399,1.152 0.648,0 1.224,-0.504 1.224,-1.152 v -43.56 l 32.904,44.28 C 667.61113,-0.144 667.97113,0 668.33113,0 h 0.43199 c 0.504,-0.216 0.792,-0.648 0.792,-1.152 v -47.232 c 0,-0.72 -0.504,-1.224 -1.22399,-1.224 z" stroke-width="0" stroke-linejoin="miter" stroke-miterlimit="2" fill="#a40077" stroke="#a40077" transform="translate(0 302.32000000000005) translate(532.5920975000001 63.472446500000004) scale(0.75) translate(-632.04313 49.620738)"></path>
        <path id="path614452" style="font-style:normal;font-weight:normal;font-size:72px;line-height:1;font-family:'Brandmark Stencil 1';font-variant-ligatures:normal;text-align:center;text-anchor:middle" d="m 714.11525,-49.608 c -13.68,0 -24.84,11.16 -24.84,24.84 0,13.68 11.16,24.768 24.84,24.768 13.68,0 24.84,-11.088 24.84,-24.768 0,-13.752 -11.16,-24.84 -24.84,-24.84 z m -22.392,24.84 c 0,-12.384 10.008,-22.392 22.392,-22.392 12.312,0 22.392,10.008 22.392,22.392 0,12.312 -10.08,22.392 -22.392,22.392 -12.384,0 -22.392,-10.08 -22.392,-22.392 z" stroke-width="0" stroke-linejoin="miter" stroke-miterlimit="2" fill="#b10077" stroke="#b10077" transform="translate(0 302.32000000000005) translate(575.5161875000001 63.482000000000006) scale(0.75) translate(-689.27525 49.608)"></path>
        <path id="path614454" style="font-style:normal;font-weight:normal;font-size:72px;line-height:1;font-family:'Brandmark Stencil 1';font-variant-ligatures:normal;text-align:center;text-anchor:middle" d="m 759.1265,-49.608 c -0.648,0 -1.224,0.504 -1.224,1.224 v 47.232 c 0,0.648 0.576,1.152 1.224,1.152 0.648,0 1.224,-0.504 1.224,-1.152 v -47.232 c 0,-0.72 -0.576,-1.224 -1.224,-1.224 z m 4.968,48.456 c 0,0.648 0.576,1.152 1.224,1.152 h 18.288 c 0.648,0 1.224,-0.504 1.224,-1.152 0,-0.72 -0.576,-1.224 -1.224,-1.224 h -18.288 c -0.648,0 -1.224,0.504 -1.224,1.224 z" stroke-width="0" stroke-linejoin="miter" stroke-miterlimit="2" fill="#bd0077" stroke="#bd0077" transform="translate(0 302.32000000000005) translate(626.9866250000001 63.482000000000006) scale(0.75) translate(-757.9025 49.608)"></path>
        <path id="path614456" style="font-style:normal;font-weight:normal;font-size:72px;line-height:1;font-family:'Brandmark Stencil 1';font-variant-ligatures:normal;text-align:center;text-anchor:middle" d="m 820.56838,-49.608 c -13.68001,0 -24.84,11.16 -24.84,24.84 0,13.68 11.15999,24.768 24.84,24.768 13.67999,0 24.83999,-11.088 24.83999,-24.768 0,-13.752 -11.16,-24.84 -24.83999,-24.84 z m -22.39201,24.84 c 0,-12.384 10.00801,-22.392 22.39201,-22.392 12.31199,0 22.39199,10.008 22.39199,22.392 0,12.312 -10.08,22.392 -22.39199,22.392 -12.384,0 -22.39201,-10.08 -22.39201,-22.392 z" stroke-width="0" stroke-linejoin="miter" stroke-miterlimit="2" fill="#c90077" stroke="#c90077" transform="translate(0 302.32000000000005) translate(655.3560350000001 63.482000000000006) scale(0.75) translate(-795.72838 49.608)"></path>
        <path id="path614458" style="font-style:normal;font-weight:normal;font-size:72px;line-height:1;font-family:'Brandmark Stencil 1';font-variant-ligatures:normal;text-align:center;text-anchor:middle" d="m 908.59063,-25.992 c -0.72,0 -1.22401,0.504 -1.22401,1.224 0,12.312 -10.08,22.392 -22.39199,22.392 -12.384,0 -22.39201,-10.08 -22.39201,-22.392 0,-12.384 10.00801,-22.392 22.39201,-22.392 5.97599,0 11.592,2.304 15.83999,6.552 0.432,0.432 1.22401,0.432 1.72801,0 0.432,-0.504 0.432,-1.296 0,-1.728 -4.75201,-4.68 -10.94401,-7.272 -17.568,-7.272 -13.68001,0 -24.84,11.088 -24.84,24.84 0,13.68 11.15999,24.768 24.84,24.768 13.67999,0 24.83999,-11.088 24.83999,-24.768 0,-0.72 -0.576,-1.224 -1.22399,-1.224 z m -27.072,1.224 c 0,0.648 0.50399,1.152 1.22399,1.152 h 19.65601 c 0.64799,0 1.15199,-0.504 1.15199,-1.152 0,-0.72 -0.504,-1.224 -1.15199,-1.224 h -19.65601 c -0.72,0 -1.22399,0.504 -1.22399,1.224 z" stroke-width="0" stroke-linejoin="miter" stroke-miterlimit="2" fill="#d50077" stroke="#d50077" transform="translate(0 302.32000000000005) translate(703.6607225000001 63.482000000000006) scale(0.75) translate(-860.13463 49.608)"></path>
        <path id="path614460" style="font-style:normal;font-weight:normal;font-size:72px;line-height:1;font-family:'Brandmark Stencil 1';font-variant-ligatures:normal;text-align:center;text-anchor:middle" d="M 930.64737,-1.152 V -47.16 h 50.832 c 0.72001,0 1.22401,-0.576 1.22401,-1.224 0,-0.72 -0.504,-1.224 -1.22401,-1.224 h -52.056 c -0.64799,0 -1.22399,0.504 -1.22399,1.224 v 47.232 c 0,0.648 0.576,1.152 1.22399,1.152 0.648,0 1.224,-0.504 1.224,-1.152 z m 21.96001,0 c 0,0.648 0.57599,1.152 1.22399,1.152 h 27.648 c 0.72001,0 1.22401,-0.504 1.22401,-1.152 0,-0.72 -0.504,-1.224 -1.22401,-1.224 h -27.648 c -0.648,0 -1.22399,0.504 -1.22399,1.224 z m 0,-24.408 c 0,0.648 0.57599,1.224 1.22399,1.224 h 27.144 c 0.648,0 1.22401,-0.576 1.22401,-1.224 0,-0.648 -0.57601,-1.224 -1.22401,-1.224 h -27.144 c -0.648,0 -1.22399,0.576 -1.22399,1.224 z" stroke-width="0" stroke-linejoin="miter" stroke-miterlimit="2" fill="#e20077" stroke="#e20077" transform="translate(0 302.32000000000005) translate(754.7092850000001 63.482000000000006) scale(0.75) translate(-928.19938 49.608)"></path>
        <path id="path614462" style="font-style:normal;font-weight:normal;font-size:72px;line-height:1;font-family:'Brandmark Stencil 1';font-variant-ligatures:normal;text-align:center;text-anchor:middle" d="m 1014.8671,-27.144 c -7.2,-2.448 -13.392,-4.608 -13.392,-10.584 0,-8.568 9.072,-9.432 12.96,-9.432 8.568,0 13.392,5.112 13.464,5.184 0.432,0.504 1.152,0.504 1.656,0.072 0.504,-0.432 0.576,-1.224 0.144,-1.728 -0.216,-0.216 -5.544,-5.976 -15.264,-5.976 -9.648,0 -15.33598,4.392 -15.33598,11.88 0,7.704 7.55998,10.368 14.97598,12.888 7.632,2.664 14.904,5.184 14.904,12.888 0,6.192 -7.2,9.576 -14.04,9.576 -9,0 -15.33598,-6.12 -15.40798,-6.192 -0.504,-0.432 -1.29599,-0.432 -1.72799,0 -0.50401,0.504 -0.50401,1.296 0,1.728 0.288,0.288 7.05597,6.84 17.13597,6.84 10.8,0 16.488,-6.048 16.488,-11.952 0,-9.432 -8.784,-12.456 -16.56,-15.192 z" stroke-width="0" stroke-linejoin="miter" stroke-miterlimit="2" fill="#ee0077" stroke="#ee0077" transform="translate(0 302.32000000000005) translate(806.6285900000001 63.482000000000006) scale(0.75) translate(-997.42512 49.608)"></path>
      </g>
      <image xlink:href="" id="icon" x="0" y="0" style="display: none;"></image>
    </g>
  </g>
</svg>